<svg width="464" height="464" viewBox="0 0 464 464" fill="none" xmlns="http://www.w3.org/2000/svg">
<g filter="url(#filter0_di_9_97)">
<path fill-rule="evenodd" clip-rule="evenodd" d="M229.376 21.0637C230.825 19.6454 233.175 19.6454 234.624 21.0637L356.126 139.958C357.575 141.376 357.575 143.676 356.126 145.094C354.677 146.512 352.327 146.512 350.877 145.094L232 28.7677L180.073 79.5808C178.623 80.9991 176.273 80.9991 174.824 79.5808C173.375 78.1625 173.375 75.8631 174.824 74.4448L195.764 53.9539H55.3185V182.562C55.3185 184.568 53.6569 186.194 51.6071 186.194C49.5574 186.194 47.8958 184.568 47.8958 182.562V50.3222C47.8958 48.3165 49.5574 46.6906 51.6071 46.6906H203.187L229.376 21.0637ZM281.601 51.5355C281.601 49.5297 283.262 47.9038 285.312 47.9038H409.913C411.963 47.9038 413.625 49.5297 413.625 51.5355V205.322L442.913 233.982C444.362 235.4 444.362 237.699 442.913 239.118L416.104 265.351V415.498C416.104 417.503 414.443 419.129 412.393 419.129H285.312C283.262 419.129 281.601 417.503 281.601 415.498C281.601 413.492 283.262 411.866 285.312 411.866H408.682V272.614L339.856 339.963V388.2C339.856 390.206 338.194 391.832 336.144 391.832H286.849L234.624 442.936C233.175 444.355 230.825 444.355 229.376 442.936L177.151 391.832H127.856C125.806 391.832 124.144 390.206 124.144 388.2V339.963L55.3185 272.614V411.866H177.448C179.498 411.866 181.16 413.492 181.16 415.498C181.16 417.503 179.498 419.129 177.448 419.129H51.6071C49.5574 419.129 47.8958 417.503 47.8958 415.498V265.351L21.087 239.118C19.6377 237.699 19.6377 235.4 21.087 233.982L81.8379 174.534C82.5339 173.853 83.4779 173.471 84.4622 173.471H379.538C380.522 173.471 381.466 173.853 382.162 174.534L406.202 198.058V55.1671H285.312C283.262 55.1671 281.601 53.5412 281.601 51.5355ZM131.567 347.227V384.569H169.728L131.567 347.227ZM294.272 384.569H332.433V347.227L294.272 384.569ZM142.589 139.958L229.376 55.0335C230.825 53.6152 233.175 53.6152 234.624 55.0335L321.411 139.958C322.473 140.997 322.79 142.559 322.216 143.916C321.641 145.273 320.288 146.158 318.787 146.158H145.213C143.712 146.158 142.359 145.273 141.784 143.916C141.21 142.559 141.527 140.997 142.589 139.958ZM154.173 138.894H309.827L235.711 66.3692V118.868C235.711 120.874 234.05 122.5 232 122.5C229.95 122.5 228.289 120.874 228.289 118.868V66.3692L154.173 138.894ZM164.575 89.0033C166.024 90.4216 166.024 92.721 164.575 94.1393L112.503 145.094C111.053 146.512 108.703 146.512 107.254 145.094C105.805 143.676 105.805 141.376 107.254 139.958L159.326 89.0033C160.776 87.585 163.125 87.585 164.575 89.0033ZM84.4622 182.238L136.253 232.918H32.6713L84.4622 182.238ZM32.6713 240.181H67.8775L103.961 281.375C105.295 282.898 107.638 283.074 109.194 281.769C110.75 280.464 110.931 278.171 109.597 276.648L77.6537 240.181H142.739L221.358 424.819L32.6713 240.181ZM242.641 424.819L431.329 240.181H392.995L326.534 314.166C325.18 315.673 322.835 315.82 321.296 314.496C319.756 313.172 319.605 310.877 320.959 309.371L383.112 240.181H321.261L242.641 424.819ZM327.747 232.918H431.329L379.538 182.238L327.747 232.918ZM370.578 180.734H243.774L318.364 231.827L370.578 180.734ZM307.013 232.918L232 181.535L156.987 232.918H307.013ZM150.78 240.181L232 430.926L313.22 240.181H235.711V373.035C235.711 375.041 234.05 376.667 232 376.667C229.95 376.667 228.289 375.041 228.289 373.035V240.181H150.78ZM145.636 231.827L220.226 180.734H93.4222L145.636 231.827Z" fill="#E30000"/>
</g>
<defs>
<filter id="filter0_di_9_97" x="0" y="0" width="464" height="464" filterUnits="userSpaceOnUse" color-interpolation-filters="sRGB">
<feFlood flood-opacity="0" result="BackgroundImageFix"/>
<feColorMatrix in="SourceAlpha" type="matrix" values="0 0 0 0 0 0 0 0 0 0 0 0 0 0 0 0 0 0 127 0" result="hardAlpha"/>
<feOffset/>
<feGaussianBlur stdDeviation="10"/>
<feComposite in2="hardAlpha" operator="out"/>
<feColorMatrix type="matrix" values="0 0 0 0 1 0 0 0 0 0 0 0 0 0 0 0 0 0 1 0"/>
<feBlend mode="normal" in2="BackgroundImageFix" result="effect1_dropShadow_9_97"/>
<feBlend mode="normal" in="SourceGraphic" in2="effect1_dropShadow_9_97" result="shape"/>
<feColorMatrix in="SourceAlpha" type="matrix" values="0 0 0 0 0 0 0 0 0 0 0 0 0 0 0 0 0 0 127 0" result="hardAlpha"/>
<feOffset/>
<feGaussianBlur stdDeviation="3.5"/>
<feComposite in2="hardAlpha" operator="arithmetic" k2="-1" k3="1"/>
<feColorMatrix type="matrix" values="0 0 0 0 1 0 0 0 0 0 0 0 0 0 0 0 0 0 1 0"/>
<feBlend mode="normal" in2="shape" result="effect2_innerShadow_9_97"/>
</filter>
</defs>
</svg>
