<svg width="464" height="464" viewBox="0 0 464 464" fill="none" xmlns="http://www.w3.org/2000/svg">
<g filter="url(#filter0_di_6_56)">
<path d="M197 258.448C197 277.814 212.67 293.513 232 293.513C251.33 293.513 267 277.814 267 258.448C267 239.081 251.33 223.382 232 223.382C212.67 223.382 197 239.081 197 258.448Z" fill="#E30000"/>
</g>
<g filter="url(#filter1_di_6_56)">
<path fill-rule="evenodd" clip-rule="evenodd" d="M232 195.872C266.495 195.872 294.459 223.888 294.459 258.448C294.459 293.007 266.495 321.024 232 321.024C197.505 321.024 169.541 293.007 169.541 258.448C169.541 223.888 197.505 195.872 232 195.872ZM303 258.448C303 219.162 271.212 187.314 232 187.314C192.788 187.314 161 219.162 161 258.448C161 297.734 192.788 329.581 232 329.581C271.212 329.581 303 297.734 303 258.448Z" fill="#E30000"/>
</g>
<g filter="url(#filter2_di_6_56)">
<path fill-rule="evenodd" clip-rule="evenodd" d="M219.031 52.1358C216.138 48.7241 214.378 44.2103 214.378 39.2603C214.378 28.6231 222.507 20 232.534 20C242.561 20 250.69 28.6231 250.69 39.2603C250.69 44.5704 248.664 49.3786 245.388 52.8627L257.855 74.4962C347.954 87.0985 417.3 164.612 417.3 258.352C417.3 282.935 412.531 306.402 403.869 327.875L416.928 350.537C419.449 349.231 422.296 348.496 425.31 348.496C435.632 348.496 444 357.119 444 367.756C444 378.393 435.632 387.016 425.31 387.016C417.075 387.016 410.085 381.529 407.594 373.909H377.036C343.086 416.622 290.734 444 232 444C173.266 444 120.914 416.622 86.9645 373.909H56.4064C53.9154 381.529 46.9247 387.016 38.6902 387.016C28.3679 387.016 20 378.393 20 367.756C20 357.119 28.3679 348.496 38.6902 348.496C41.7041 348.496 44.5514 349.231 47.0724 350.537L60.1314 327.875C51.4694 306.402 46.7003 282.935 46.7003 258.352C46.7003 164.612 116.046 87.0985 206.145 74.4962L219.031 52.1358ZM238.226 57.5551L247.316 73.3286C242.265 72.9146 237.157 72.7035 232 72.7035C226.843 72.7035 221.735 72.9146 216.684 73.3286L225.966 57.2217C228.003 58.0605 230.218 58.5207 232.534 58.5207C234.522 58.5207 236.436 58.1816 238.226 57.5551ZM232 81.2636C225.041 81.2636 218.176 81.6665 211.427 82.4503L189.264 120.911C202.764 116.702 217.118 114.434 232 114.434C246.882 114.434 261.236 116.702 274.736 120.911L252.573 82.4503C245.824 81.6665 238.959 81.2636 232 81.2636ZM281.291 132.286C266.02 126.288 249.394 122.994 232 122.994C214.606 122.994 197.98 126.288 182.709 132.285L98.3971 278.593C103.66 313.76 122.427 344.501 149.24 365.349H314.76C341.573 344.501 360.34 313.76 365.603 278.593L281.291 132.286ZM366.992 263.884L294.691 138.418C314.355 148.756 331.164 163.807 343.623 182.073C342.266 184.138 341.471 186.64 341.471 189.336C341.471 196.427 346.97 202.176 353.753 202.176C354.15 202.176 354.542 202.156 354.928 202.118C362.746 219.244 367.103 238.288 367.103 258.352C367.103 260.205 367.066 262.049 366.992 263.884ZM374.47 276.86C375.247 270.801 375.647 264.623 375.647 258.352C375.647 236.907 370.966 216.558 362.571 198.274C364.715 195.962 366.035 192.81 366.035 189.336C366.035 182.244 360.536 176.495 353.753 176.495C352.62 176.495 351.523 176.656 350.482 176.956C334.891 154.219 312.948 136.194 287.219 125.451L263.355 84.0415C346.018 98.8677 408.756 171.269 408.756 258.352C408.756 279.401 405.09 299.593 398.363 318.322L374.47 276.86ZM372.167 289.983C365.54 319.588 349.808 345.745 328.07 365.349H372.857C381.424 354.045 388.666 341.68 394.353 328.483L372.167 289.983ZM302.39 373.909H161.61C178.948 384.533 198.863 391.35 220.196 393.2C221.588 387.922 225.868 384.079 230.932 384.079C236.048 384.079 240.365 388.002 241.711 393.365C263.835 391.791 284.486 384.879 302.39 373.909ZM146.362 373.909C167.407 389.589 192.882 399.635 220.564 401.82C222.246 406.48 226.254 409.759 230.932 409.759C235.557 409.759 239.528 406.553 241.243 401.976C269.772 400.161 296.038 390.002 317.638 373.909H365.941C333.527 411.587 285.544 435.44 232 435.44C178.456 435.44 130.473 411.587 98.0586 373.909H146.362ZM135.93 365.349C114.192 345.745 98.4604 319.588 91.8333 289.983L69.6469 328.483C75.3336 341.68 82.5763 354.045 91.1433 365.349H135.93ZM97.0075 263.884L169.309 138.418C149.347 148.913 132.327 164.265 119.813 182.906C120.861 184.797 121.461 186.993 121.461 189.336C121.461 196.427 115.962 202.176 109.179 202.176C109.152 202.176 109.126 202.176 109.1 202.175C109.082 202.175 109.063 202.175 109.046 202.175C101.244 219.287 96.8967 238.311 96.8967 258.352C96.8967 260.205 96.9339 262.049 97.0075 263.884ZM176.781 125.451C150.943 136.24 128.924 154.371 113.321 177.244C112.027 176.759 110.632 176.495 109.179 176.495C102.396 176.495 96.8967 182.244 96.8967 189.336C96.8967 193.191 98.5225 196.65 101.096 199.004C92.9106 217.099 88.3526 237.192 88.3526 258.352C88.3526 264.623 88.753 270.801 89.5295 276.86L65.6368 318.322C58.9101 299.593 55.2443 279.401 55.2443 258.352C55.2443 171.269 117.982 98.8677 200.645 84.0415L176.781 125.451ZM53.661 356.224L64.3876 337.61C68.9847 347.351 74.4029 356.627 80.5527 365.349H57.2358C56.8249 361.953 55.5565 358.833 53.661 356.224ZM406.764 365.349H383.447C389.597 356.627 395.015 347.351 399.612 337.61L410.339 356.224C408.443 358.833 407.175 361.953 406.764 365.349Z" fill="#E30000"/>
</g>
<defs>
<filter id="filter0_di_6_56" x="180.9" y="207.282" width="102.2" height="102.332" filterUnits="userSpaceOnUse" color-interpolation-filters="sRGB">
<feFlood flood-opacity="0" result="BackgroundImageFix"/>
<feColorMatrix in="SourceAlpha" type="matrix" values="0 0 0 0 0 0 0 0 0 0 0 0 0 0 0 0 0 0 127 0" result="hardAlpha"/>
<feOffset/>
<feGaussianBlur stdDeviation="8.05"/>
<feComposite in2="hardAlpha" operator="out"/>
<feColorMatrix type="matrix" values="0 0 0 0 1 0 0 0 0 0 0 0 0 0 0 0 0 0 1 0"/>
<feBlend mode="normal" in2="BackgroundImageFix" result="effect1_dropShadow_6_56"/>
<feBlend mode="normal" in="SourceGraphic" in2="effect1_dropShadow_6_56" result="shape"/>
<feColorMatrix in="SourceAlpha" type="matrix" values="0 0 0 0 0 0 0 0 0 0 0 0 0 0 0 0 0 0 127 0" result="hardAlpha"/>
<feOffset/>
<feGaussianBlur stdDeviation="8.5"/>
<feComposite in2="hardAlpha" operator="arithmetic" k2="-1" k3="1"/>
<feColorMatrix type="matrix" values="0 0 0 0 1 0 0 0 0 0 0 0 0 0 0 0 0 0 1 0"/>
<feBlend mode="normal" in2="shape" result="effect2_innerShadow_6_56"/>
</filter>
<filter id="filter1_di_6_56" x="144.9" y="171.214" width="174.2" height="174.467" filterUnits="userSpaceOnUse" color-interpolation-filters="sRGB">
<feFlood flood-opacity="0" result="BackgroundImageFix"/>
<feColorMatrix in="SourceAlpha" type="matrix" values="0 0 0 0 0 0 0 0 0 0 0 0 0 0 0 0 0 0 127 0" result="hardAlpha"/>
<feOffset/>
<feGaussianBlur stdDeviation="8.05"/>
<feComposite in2="hardAlpha" operator="out"/>
<feColorMatrix type="matrix" values="0 0 0 0 1 0 0 0 0 0 0 0 0 0 0 0 0 0 1 0"/>
<feBlend mode="normal" in2="BackgroundImageFix" result="effect1_dropShadow_6_56"/>
<feBlend mode="normal" in="SourceGraphic" in2="effect1_dropShadow_6_56" result="shape"/>
<feColorMatrix in="SourceAlpha" type="matrix" values="0 0 0 0 0 0 0 0 0 0 0 0 0 0 0 0 0 0 127 0" result="hardAlpha"/>
<feOffset/>
<feGaussianBlur stdDeviation="2.75"/>
<feComposite in2="hardAlpha" operator="arithmetic" k2="-1" k3="1"/>
<feColorMatrix type="matrix" values="0 0 0 0 1 0 0 0 0 0 0 0 0 0 0 0 0 0 1 0"/>
<feBlend mode="normal" in2="shape" result="effect2_innerShadow_6_56"/>
</filter>
<filter id="filter2_di_6_56" x="0" y="0" width="464" height="464" filterUnits="userSpaceOnUse" color-interpolation-filters="sRGB">
<feFlood flood-opacity="0" result="BackgroundImageFix"/>
<feColorMatrix in="SourceAlpha" type="matrix" values="0 0 0 0 0 0 0 0 0 0 0 0 0 0 0 0 0 0 127 0" result="hardAlpha"/>
<feOffset/>
<feGaussianBlur stdDeviation="10"/>
<feComposite in2="hardAlpha" operator="out"/>
<feColorMatrix type="matrix" values="0 0 0 0 1 0 0 0 0 0 0 0 0 0 0 0 0 0 1 0"/>
<feBlend mode="normal" in2="BackgroundImageFix" result="effect1_dropShadow_6_56"/>
<feBlend mode="normal" in="SourceGraphic" in2="effect1_dropShadow_6_56" result="shape"/>
<feColorMatrix in="SourceAlpha" type="matrix" values="0 0 0 0 0 0 0 0 0 0 0 0 0 0 0 0 0 0 127 0" result="hardAlpha"/>
<feOffset/>
<feGaussianBlur stdDeviation="3"/>
<feComposite in2="hardAlpha" operator="arithmetic" k2="-1" k3="1"/>
<feColorMatrix type="matrix" values="0 0 0 0 1 0 0 0 0 0 0 0 0 0 0 0 0 0 1 0"/>
<feBlend mode="normal" in2="shape" result="effect2_innerShadow_6_56"/>
</filter>
</defs>
</svg>
