<svg width="464" height="464" viewBox="0 0 464 464" fill="none" xmlns="http://www.w3.org/2000/svg">
<g filter="url(#filter0_di_11_170)">
<path fill-rule="evenodd" clip-rule="evenodd" d="M234.269 20.939C232.63 19.7074 230.323 19.6852 228.659 20.8849C215.812 30.1438 200.421 45.2665 185.986 65.8675H159.534L181.231 38.4251C182.753 36.5006 182.346 33.7673 180.323 32.3201C178.299 30.8729 175.426 31.2597 173.904 33.1842L148.063 65.8675H36.0433C34.5052 65.8675 33.0696 66.6013 32.2207 67.8213C31.3719 69.0414 31.223 70.5851 31.8243 71.9317L71.8184 161.503L39.1462 237.735C38.1423 237.548 37.1048 237.45 36.0432 237.45C27.1828 237.45 20 244.282 20 252.71C20 261.137 27.1828 267.969 36.0432 267.969C44.9037 267.969 52.0865 261.137 52.0865 252.71C52.0865 248.449 50.2512 244.597 47.2917 241.829L76.8698 172.816L92.2006 207.151L76.4706 245.116C75.5425 247.356 76.6994 249.888 79.0546 250.771C81.4099 251.654 84.0716 250.553 84.9998 248.313L97.3117 218.598L112.596 252.829C105.568 271.356 100.216 293.845 100.216 318.653C100.216 321.061 102.269 323.013 104.8 323.013H123.13L105.874 367.157C97.0469 367.193 89.9025 374.011 89.9025 382.416C89.9025 390.844 97.0854 397.676 105.946 397.676C114.806 397.676 121.989 390.844 121.989 382.416C121.989 377.058 119.085 372.344 114.692 369.622L132.911 323.013H148.687L138.186 360.587C137.821 361.895 138.115 363.291 138.983 364.365C139.85 365.438 141.193 366.067 142.616 366.067H156.946C157.213 372.413 158.581 380.602 161.916 388.637C166.138 398.805 173.683 409.092 186.539 414.717C188.078 415.39 189.883 415.201 191.231 414.225C192.579 413.248 193.251 411.644 192.978 410.053C192.075 404.792 193.939 401.55 196.488 399.793C199.22 397.91 203.526 397.2 208.3 398.686C217.458 401.537 228.769 413.059 226.854 439.339C226.739 440.926 227.541 442.447 228.948 443.308C230.356 444.168 232.144 444.231 233.614 443.472C247.228 436.442 267.196 424.043 282.915 409.585C290.772 402.358 297.742 394.46 302.28 386.306C305.884 379.83 308.073 372.967 307.731 366.067H327.114C328.62 366.067 330.031 365.363 330.887 364.183C331.742 363.003 331.934 361.499 331.399 360.159L316.568 323.013H333.457L353.139 370.117C349.17 372.895 346.594 377.37 346.594 382.416C346.594 390.844 353.777 397.676 362.638 397.676C371.498 397.676 378.681 390.844 378.681 382.416C378.681 373.989 371.498 367.157 362.638 367.157C362.349 367.157 362.062 367.164 361.776 367.178L343.322 323.013H363.211C364.475 323.013 365.682 322.517 366.549 321.641C367.415 320.766 367.863 319.589 367.786 318.389C366.828 303.34 362.92 277.412 354.207 252.849L368.317 220.109L377.158 247.974C377.889 250.279 380.447 251.584 382.87 250.889C385.294 250.193 386.666 247.76 385.934 245.455L373.833 207.311L388.635 172.963L417.884 240.832C414.242 243.629 411.914 247.911 411.914 252.71C411.914 261.137 419.096 267.969 427.957 267.969C436.817 267.969 444 261.137 444 252.71C444 244.282 436.817 237.45 427.957 237.45C427.42 237.45 426.89 237.475 426.366 237.524L393.589 161.468L432.198 71.881C432.778 70.5363 432.615 69.0054 431.763 67.7985C430.912 66.5916 429.485 65.8675 427.957 65.8675H315.384L289.522 33.1829C288 31.259 285.126 30.8731 283.103 32.3211C281.08 33.769 280.675 36.5025 282.197 38.4264L303.91 65.8675H279.258C267.126 49.6564 252.284 34.4779 234.269 20.939ZM114.531 74.5873H180.151C159.382 107.098 141.612 151.521 138.125 206.818C136.226 209.103 134.124 211.895 131.913 215.145L85.9793 110.552L114.531 74.5873ZM135.139 226.894C135.945 225.549 136.742 224.264 137.526 223.041C137.214 250.971 140.544 281.429 148.802 314.293H109.442C110.039 291.694 115.212 271.192 121.821 254.224C125.969 243.575 130.673 234.345 135.139 226.894ZM148.578 357.347L158.173 323.013H306.762L320.47 357.347H148.578ZM358.273 314.293H316.027C322.909 290.63 328.457 257.527 327.955 220.963C329.372 222.875 330.737 224.882 332.05 226.971C337.175 235.126 341.454 244.445 344.982 254.136C352.905 275.902 356.882 299.125 358.273 314.293ZM268.589 167.528L317.788 199.78C314.501 159.198 302.931 116.079 277.007 78.2111L239.288 135.123C247.967 136.673 254.766 140.774 259.625 146.198C265.177 152.394 268.08 160.171 268.589 167.528ZM327.446 206.598C324.957 163.277 313.497 116.086 285.461 74.5873H347.062L376.354 110.661L334.878 215.176C332.563 212.117 330.089 209.239 327.446 206.598ZM385.174 107.258L358.645 74.5873H421.124L349.481 240.826C346.986 235.095 344.185 229.536 341.045 224.328L385.835 111.463C386.396 110.047 386.146 108.455 385.174 107.258ZM231.537 130.466L271.37 70.3652C260.44 55.8611 247.24 42.2257 231.391 29.924C220.086 38.6171 206.663 52.1541 193.865 70.3468L231.537 130.466ZM223.769 135.102L188.34 78.5619C169.114 108.477 152.378 149.099 147.867 199.586L195.421 167.555C195.859 161.831 197.921 154.368 202.685 147.943C207.183 141.878 214.03 136.844 223.769 135.102ZM156.531 307.414C148.147 272.189 145.577 239.936 147.078 210.802L196.333 177.625C197.449 182.129 199.559 187.005 202.974 191.351C207.501 197.114 214.258 201.846 223.661 203.538L156.531 307.414ZM162.847 314.293L231.47 208.105L301.63 314.293H162.847ZM318.486 210.828C320.204 248.541 315.058 283.161 308.305 308.008L239.341 203.63C248.501 202.233 255.425 198.377 260.261 193.01C264.34 188.484 266.746 183.095 267.878 177.652L318.486 210.828ZM76.5056 111.603L126.066 224.453C123.173 229.421 120.223 235.058 117.4 241.281L42.9701 74.5873H103.044L77.0772 107.296C76.095 108.533 75.8774 110.173 76.5056 111.603ZM170.443 385.434C167.582 378.544 166.387 371.479 166.121 366.067H298.547C298.897 371.078 297.37 376.489 294.177 382.226C290.259 389.266 284.022 396.437 276.542 403.316C264.064 414.793 248.612 425.022 236.213 432.032C235.693 408.173 224.245 394.474 211.151 390.399C204.108 388.206 196.632 388.926 191.11 392.732C187.488 395.227 185.012 398.839 184.042 403.213C177.595 398.62 173.261 392.221 170.443 385.434ZM204.497 169.871C204.497 165.425 206.017 158.579 210.177 152.969C214.179 147.572 220.703 143.167 231.427 143.167C241.256 143.167 248.146 146.83 252.648 151.854C257.246 156.985 259.503 163.72 259.503 169.871C259.503 176.187 257.58 182.587 253.301 187.335C249.131 191.963 242.31 195.486 231.427 195.486C220.917 195.486 214.37 191.289 210.318 186.132C206.115 180.782 204.497 174.236 204.497 169.871ZM248.043 166.602C248.043 158.174 240.861 151.342 232 151.342C223.14 151.342 215.957 158.174 215.957 166.602C215.957 175.029 223.14 181.861 232 181.861C240.861 181.861 248.043 175.029 248.043 166.602Z" fill="#E30000"/>
</g>
<defs>
<filter id="filter0_di_11_170" x="0" y="0" width="464" height="464" filterUnits="userSpaceOnUse" color-interpolation-filters="sRGB">
<feFlood flood-opacity="0" result="BackgroundImageFix"/>
<feColorMatrix in="SourceAlpha" type="matrix" values="0 0 0 0 0 0 0 0 0 0 0 0 0 0 0 0 0 0 127 0" result="hardAlpha"/>
<feOffset/>
<feGaussianBlur stdDeviation="10"/>
<feComposite in2="hardAlpha" operator="out"/>
<feColorMatrix type="matrix" values="0 0 0 0 1 0 0 0 0 0 0 0 0 0 0 0 0 0 1 0"/>
<feBlend mode="normal" in2="BackgroundImageFix" result="effect1_dropShadow_11_170"/>
<feBlend mode="normal" in="SourceGraphic" in2="effect1_dropShadow_11_170" result="shape"/>
<feColorMatrix in="SourceAlpha" type="matrix" values="0 0 0 0 0 0 0 0 0 0 0 0 0 0 0 0 0 0 127 0" result="hardAlpha"/>
<feOffset/>
<feGaussianBlur stdDeviation="3.5"/>
<feComposite in2="hardAlpha" operator="arithmetic" k2="-1" k3="1"/>
<feColorMatrix type="matrix" values="0 0 0 0 1 0 0 0 0 0 0 0 0 0 0 0 0 0 1 0"/>
<feBlend mode="normal" in2="shape" result="effect2_innerShadow_11_170"/>
</filter>
</defs>
</svg>
