<svg width="464" height="464" viewBox="0 0 464 464" fill="none" xmlns="http://www.w3.org/2000/svg">
<g filter="url(#filter0_di_8_95)">
<path fill-rule="evenodd" clip-rule="evenodd" d="M232.232 20C234.279 20 235.939 21.6543 235.939 23.695V57.4619C268.215 58.336 295.308 70.5295 315.973 85.298L336.106 52.2604C337.169 50.5163 339.449 49.9612 341.199 51.0206C342.949 52.08 343.506 54.3527 342.443 56.0969L321.929 89.7586C338.074 102.416 349.8 116.354 356.398 126.693H375.882C377.929 126.693 379.589 128.347 379.589 130.388V143.78L410.143 125.819C411.907 124.783 414.179 125.367 415.219 127.125C416.259 128.883 415.673 131.148 413.909 132.185L385.537 148.863H394.417C396.465 148.863 398.125 150.517 398.125 152.558V228.767H440.293C442.34 228.767 444 230.421 444 232.462C444 234.503 442.34 236.157 440.293 236.157H398.125V316.061C398.125 318.102 396.465 319.756 394.417 319.756H386.482L412.957 335.033C414.729 336.056 415.333 338.316 414.308 340.082C413.282 341.848 411.014 342.451 409.242 341.429L379.589 324.317V338.231C379.589 340.272 377.929 341.926 375.882 341.926H356.722C350.354 352.738 338.47 367.427 321.466 380.453L339.673 410.691C340.726 412.441 340.157 414.711 338.402 415.761C336.646 416.811 334.369 416.244 333.315 414.494L315.456 384.832C295.378 398.73 269 409.896 236.866 410.699V440.305C236.866 442.346 235.206 444 233.158 444C231.111 444 229.451 442.346 229.451 440.305V410.699C195.467 409.851 167.619 397.428 146.777 382.452L128.854 413.069C127.823 414.832 125.553 415.427 123.784 414.398C122.016 413.37 121.419 411.108 122.45 409.345L140.822 377.96C125.172 365.579 114.01 352.045 107.79 341.926H89.0448C86.9974 341.926 85.3377 340.272 85.3377 338.231V322.379L53.7912 340.066C52.0068 341.066 49.7465 340.435 48.7427 338.657C47.739 336.878 48.3719 334.625 50.1563 333.625L74.8929 319.756H70.9727C68.9253 319.756 67.2656 318.102 67.2656 316.061V236.619H23.7071C21.6597 236.619 20 234.964 20 232.924C20 230.883 21.6597 229.229 23.7071 229.229H67.2656V152.558C67.2656 150.517 68.9253 148.863 70.9727 148.863H83.4167L51.9078 129.854C50.1562 128.797 49.5958 126.525 50.6559 124.78C51.716 123.034 53.9953 122.475 55.7469 123.532L85.3377 141.383V130.388C85.3377 128.347 86.9974 126.693 89.0448 126.693H108.066C114.921 115.949 127.32 101.313 144.467 88.2657L125.202 54.1432C124.198 52.3648 124.83 50.1118 126.615 49.111C128.399 48.1102 130.659 48.7406 131.663 50.5191L150.501 83.8839C170.899 69.7588 197.284 58.308 228.525 57.4619V23.695C228.525 21.6543 230.184 20 232.232 20ZM116.995 126.693H129.335C142.636 109.144 179.65 77.2723 232.232 77.2723C284.801 77.2723 321.522 109.129 334.679 126.693H347.468C340.601 117 329.536 104.699 314.805 93.6158C293.932 77.9111 265.907 64.8017 232.232 64.8017C199.529 64.8017 172.157 77.1639 151.485 92.2615C135.843 103.686 124.145 116.601 116.995 126.693ZM325.151 126.693C310.583 109.973 277.64 84.6623 232.232 84.6623C186.832 84.6623 153.647 109.963 138.907 126.693H208.599C210.646 126.693 212.306 128.347 212.306 130.388C212.306 132.428 210.646 134.083 208.599 134.083H92.7519V334.536H372.175V134.083H247.523C245.476 134.083 243.816 132.428 243.816 130.388C243.816 128.347 245.476 126.693 247.523 126.693H325.151ZM85.3377 156.253V312.366H74.6798V156.253H85.3377ZM116.628 341.926C123.095 351.339 133.627 363.256 147.905 374.088C168.807 389.947 197.561 403.355 233.158 403.355C266.933 403.355 294.202 391.287 314.374 376.521C330.023 365.066 341.323 352.042 347.99 341.926H335.139C321.866 359.615 285.051 391.808 233.158 391.808C181.211 391.808 142.923 359.541 128.928 341.926H116.628ZM138.672 341.926C154.211 358.874 188.417 384.418 233.158 384.418C277.937 384.418 310.933 358.826 325.614 341.926H138.672ZM379.589 312.366V156.253H390.71V312.366H379.589ZM218.793 130.388C218.793 128.347 220.453 126.693 222.501 126.693H235.012C237.059 126.693 238.719 128.347 238.719 130.388C238.719 132.428 237.059 134.083 235.012 134.083H222.501C220.453 134.083 218.793 132.428 218.793 130.388ZM101.093 152.558C101.093 150.517 102.753 148.863 104.8 148.863H359.663C361.711 148.863 363.37 150.517 363.37 152.558V316.061C363.37 318.102 361.711 319.756 359.663 319.756H104.8C102.753 319.756 101.093 318.102 101.093 316.061V152.558ZM108.507 156.253V243.547H184.966V156.253H108.507ZM192.38 156.253V189.046H270.461V156.253H192.38ZM277.875 156.253V250.834L352.06 156.253H277.875ZM355.956 163.283L277.875 262.833V312.366H355.956V163.283ZM270.461 312.366V203.754L192.38 306.678V312.366H270.461ZM184.966 312.366V258.077L142.928 312.366H184.966ZM133.562 312.366L181.129 250.937H108.507V312.366H133.562ZM192.38 294.425L266.718 196.436H192.38V294.425Z" fill="#E30000"/>
</g>
<defs>
<filter id="filter0_di_8_95" x="0" y="0" width="464" height="464" filterUnits="userSpaceOnUse" color-interpolation-filters="sRGB">
<feFlood flood-opacity="0" result="BackgroundImageFix"/>
<feColorMatrix in="SourceAlpha" type="matrix" values="0 0 0 0 0 0 0 0 0 0 0 0 0 0 0 0 0 0 127 0" result="hardAlpha"/>
<feOffset/>
<feGaussianBlur stdDeviation="10"/>
<feComposite in2="hardAlpha" operator="out"/>
<feColorMatrix type="matrix" values="0 0 0 0 1 0 0 0 0 0 0 0 0 0 0 0 0 0 1 0"/>
<feBlend mode="normal" in2="BackgroundImageFix" result="effect1_dropShadow_8_95"/>
<feBlend mode="normal" in="SourceGraphic" in2="effect1_dropShadow_8_95" result="shape"/>
<feColorMatrix in="SourceAlpha" type="matrix" values="0 0 0 0 0 0 0 0 0 0 0 0 0 0 0 0 0 0 127 0" result="hardAlpha"/>
<feOffset/>
<feGaussianBlur stdDeviation="3.5"/>
<feComposite in2="hardAlpha" operator="arithmetic" k2="-1" k3="1"/>
<feColorMatrix type="matrix" values="0 0 0 0 1 0 0 0 0 0 0 0 0 0 0 0 0 0 1 0"/>
<feBlend mode="normal" in2="shape" result="effect2_innerShadow_8_95"/>
</filter>
</defs>
</svg>
