<svg width="464" height="464" viewBox="0 0 464 464" fill="none" xmlns="http://www.w3.org/2000/svg">
<g filter="url(#filter0_di_9_112)">
<path fill-rule="evenodd" clip-rule="evenodd" d="M236.667 23.9442C236.667 21.7659 234.908 20 232.737 20C230.566 20 228.806 21.7659 228.806 23.9442V59.9784C135.602 62.0465 60.4264 137.484 58.3655 231.014H23.9305C21.7597 231.014 20 232.78 20 234.958C20 237.136 21.7597 238.902 23.9305 238.902H58.3655C60.4264 332.432 135.602 407.87 228.806 409.938V440.056C228.806 442.234 230.566 444 232.737 444C234.908 444 236.667 442.234 236.667 440.056V409.938C329.872 407.87 405.047 332.432 407.108 238.902H440.07C442.24 238.902 444 237.136 444 234.958C444 232.78 442.24 231.014 440.07 231.014H407.108C405.047 137.484 329.872 62.0465 236.667 59.9784V23.9442ZM66.2285 231.014C68.2864 141.841 139.943 69.9339 228.806 67.8689V118.148C167.168 119.685 117.419 169.288 115.379 231.014H66.2285ZM123.245 238.902L155.601 238.902L158.549 238.902C158.553 238.902 158.557 238.902 158.56 238.902H206.993C207.682 243.465 209.547 247.642 212.266 251.109L202.152 261.258C200.617 262.798 200.617 265.295 202.152 266.835C203.687 268.376 206.176 268.376 207.711 266.835L218.004 256.506C221.17 258.689 224.842 260.189 228.806 260.792V316.8V320.251V343.877C171.51 342.344 125.279 296.271 123.245 238.902ZM236.667 320.251V343.807C293.052 341.287 338.253 295.613 340.264 238.902L314.786 238.902L312.329 238.902C312.325 238.902 312.322 238.902 312.318 238.902H258.481C257.792 243.465 255.927 247.642 253.208 251.109L263.322 261.258C264.857 262.798 264.857 265.295 263.322 266.835C261.787 268.376 259.298 268.376 257.763 266.835L247.47 256.506C244.304 258.689 240.632 260.189 236.667 260.792V316.8V320.251ZM314.786 231.014H340.264C338.253 174.303 293.052 128.629 236.667 126.11V153.116V157.553V209.124C240.632 209.727 244.304 211.227 247.47 213.41L257.763 203.081C259.298 201.54 261.787 201.54 263.322 203.081C264.857 204.621 264.857 207.118 263.322 208.659L253.208 218.808C255.927 222.274 257.792 226.451 258.481 231.014H312.329H314.786ZM228.806 153.116V126.039C171.51 127.572 125.279 173.646 123.245 231.014H155.601H158.549H206.993C207.682 226.451 209.547 222.274 212.266 218.808L202.152 208.659C200.617 207.118 200.617 204.621 202.152 203.081C203.687 201.54 206.176 201.54 207.711 203.081L218.004 213.41C221.17 211.227 224.842 209.727 228.806 209.124V157.553V153.116ZM115.379 238.902H66.2285C68.2864 328.075 139.943 399.982 228.806 402.047V351.768C167.168 350.231 117.419 300.628 115.379 238.902ZM236.667 351.703V402.047C325.53 399.982 397.188 328.075 399.245 238.902H348.13C346.111 299.97 297.395 349.173 236.667 351.703ZM348.13 231.014H399.245C397.188 141.841 325.53 69.9339 236.667 67.8689V118.214C297.395 120.743 346.111 169.946 348.13 231.014ZM96.6443 59.9349H58.3221V97.4046C58.3221 99.583 60.0819 101.349 62.2526 101.349C64.4233 101.349 66.1831 99.583 66.1831 97.4046V67.8233H96.6443C98.815 67.8233 100.575 66.0574 100.575 63.8791C100.575 61.7008 98.815 59.9349 96.6443 59.9349ZM372.76 59.9349C370.589 59.9349 368.83 61.7008 368.83 63.8791C368.83 66.0574 370.589 67.8233 372.76 67.8233H399.291V97.4046C399.291 99.583 401.051 101.349 403.221 101.349C405.392 101.349 407.152 99.583 407.152 97.4046V59.9349H372.76ZM66.1831 372.512C66.1831 370.333 64.4233 368.567 62.2526 368.567C60.0819 368.567 58.3221 370.333 58.3221 372.512V409.981H96.6443C98.815 409.981 100.575 408.216 100.575 406.037C100.575 403.859 98.815 402.093 96.6443 402.093H66.1831V372.512ZM407.152 372.512C407.152 370.333 405.392 368.567 403.221 368.567C401.051 368.567 399.291 370.333 399.291 372.512V402.093H372.76C370.589 402.093 368.83 403.859 368.83 406.037C368.83 408.216 370.589 409.981 372.76 409.981H407.152V372.512ZM253.927 91.1531C254.314 89.0098 256.36 87.5875 258.495 87.9763C320.95 99.3458 369.827 149.803 379.051 213.188C379.365 215.344 377.878 217.346 375.73 217.661C373.582 217.976 371.587 216.484 371.273 214.328C362.538 154.306 316.237 106.505 257.092 95.738C254.956 95.3492 253.539 93.2965 253.927 91.1531ZM206.619 91.641C207.051 93.7758 205.676 95.8577 203.549 96.291C145.779 108.059 100.829 155.28 92.2361 214.328C91.9224 216.484 89.9268 217.976 87.7789 217.661C85.6309 217.346 84.1439 215.344 84.4576 213.188C93.5327 150.83 140.984 100.986 201.985 88.5603C204.113 88.127 206.187 89.5062 206.619 91.641ZM87.7789 252.255C89.9268 251.941 91.9224 253.433 92.2361 255.588C100.829 314.636 145.779 361.858 203.549 373.625C205.676 374.059 207.051 376.141 206.619 378.275C206.187 380.41 204.113 381.789 201.985 381.356C140.984 368.93 93.5327 319.086 84.4576 256.728C84.1439 254.573 85.6309 252.57 87.7789 252.255ZM375.73 252.255C377.878 252.57 379.365 254.573 379.051 256.728C369.827 320.114 320.95 370.57 258.495 381.94C256.36 382.329 254.314 380.906 253.927 378.763C253.539 376.62 254.956 374.567 257.092 374.178C316.237 363.411 362.538 315.61 371.273 255.588C371.587 253.433 373.582 251.941 375.73 252.255ZM204.932 171.851H167.884V205.87C167.884 208.048 169.644 209.814 171.815 209.814C173.985 209.814 175.745 208.048 175.745 205.87V179.74H204.932C207.102 179.74 208.862 177.974 208.862 175.795C208.862 173.617 207.102 171.851 204.932 171.851ZM260.542 171.851C258.372 171.851 256.612 173.617 256.612 175.795C256.612 177.974 258.372 179.74 260.542 179.74H288.746V205.87C288.746 208.048 290.506 209.814 292.677 209.814C294.847 209.814 296.607 208.048 296.607 205.87V171.851H260.542ZM220.379 221.58C223.625 218.558 227.962 216.716 232.737 216.716C237.512 216.716 241.849 218.558 245.095 221.58C248.68 224.917 250.915 229.673 250.915 234.958C250.915 240.244 248.68 244.999 245.095 248.336C241.849 251.358 237.512 253.2 232.737 253.2C227.962 253.2 223.625 251.358 220.379 248.336C216.794 244.999 214.559 240.244 214.559 234.958C214.559 229.673 216.794 224.917 220.379 221.58ZM175.745 264.047C175.745 261.868 173.985 260.102 171.815 260.102C169.644 260.102 167.884 261.868 167.884 264.047V300.037H204.932C207.102 300.037 208.862 298.271 208.862 296.093C208.862 293.915 207.102 292.149 204.932 292.149H175.745V264.047ZM296.607 264.047C296.607 261.868 294.847 260.102 292.677 260.102C290.506 260.102 288.746 261.868 288.746 264.047V292.149H260.542C258.372 292.149 256.612 293.915 256.612 296.093C256.612 298.271 258.372 300.037 260.542 300.037H296.607V264.047Z" fill="#E30000"/>
</g>
<defs>
<filter id="filter0_di_9_112" x="0" y="0" width="464" height="464" filterUnits="userSpaceOnUse" color-interpolation-filters="sRGB">
<feFlood flood-opacity="0" result="BackgroundImageFix"/>
<feColorMatrix in="SourceAlpha" type="matrix" values="0 0 0 0 0 0 0 0 0 0 0 0 0 0 0 0 0 0 127 0" result="hardAlpha"/>
<feOffset/>
<feGaussianBlur stdDeviation="10"/>
<feComposite in2="hardAlpha" operator="out"/>
<feColorMatrix type="matrix" values="0 0 0 0 1 0 0 0 0 0 0 0 0 0 0 0 0 0 1 0"/>
<feBlend mode="normal" in2="BackgroundImageFix" result="effect1_dropShadow_9_112"/>
<feBlend mode="normal" in="SourceGraphic" in2="effect1_dropShadow_9_112" result="shape"/>
<feColorMatrix in="SourceAlpha" type="matrix" values="0 0 0 0 0 0 0 0 0 0 0 0 0 0 0 0 0 0 127 0" result="hardAlpha"/>
<feOffset/>
<feGaussianBlur stdDeviation="3.5"/>
<feComposite in2="hardAlpha" operator="arithmetic" k2="-1" k3="1"/>
<feColorMatrix type="matrix" values="0 0 0 0 1 0 0 0 0 0 0 0 0 0 0 0 0 0 1 0"/>
<feBlend mode="normal" in2="shape" result="effect2_innerShadow_9_112"/>
</filter>
</defs>
</svg>
