<svg width="464" height="464" viewBox="0 0 464 464" fill="none" xmlns="http://www.w3.org/2000/svg">
<g filter="url(#filter0_di_9_120)">
<path fill-rule="evenodd" clip-rule="evenodd" d="M228.002 21.3666C230.21 19.5445 233.79 19.5445 235.998 21.3666L409.837 164.838C412.045 166.66 412.045 169.615 409.837 171.437L396.522 182.426L442.344 220.244C443.961 221.579 444.445 223.585 443.57 225.329C442.694 227.072 440.633 228.209 438.346 228.209H419.267V294.113C419.267 295.35 418.671 296.537 417.611 297.412L394.533 316.458V364.682C394.533 367.259 392.002 369.348 388.88 369.348H316.8C313.678 369.348 311.147 367.259 311.147 364.682V353.784L297.013 365.448V390.344C297.013 391.581 296.418 392.768 295.357 393.643L235.998 442.633C233.79 444.456 230.21 444.456 228.002 442.633L168.643 393.643C167.582 392.768 166.987 391.581 166.987 390.344V366.615L152.853 354.95V364.682C152.853 367.259 150.322 369.348 147.2 369.348H79.3601C76.2379 369.348 73.7068 367.259 73.7068 364.682V318.208L48.5093 297.412C47.4491 296.537 46.8535 295.35 46.8535 294.113V228.209H25.6535C23.3669 228.209 21.3055 227.072 20.4305 225.329C19.5555 223.585 20.0391 221.579 21.656 220.244L67.4784 182.426L54.1626 171.437C51.9549 169.615 51.9549 166.66 54.1626 164.838L228.002 21.3666ZM75.4735 175.828L228.002 49.9443C230.21 48.1222 233.79 48.1222 235.998 49.9443L388.527 175.828L397.845 168.138L232 31.2641L66.1552 168.138L75.4735 175.828ZM58.1601 228.209V292.18L73.7068 305.011V228.209H58.1601ZM152.853 341.754L166.987 353.418V228.209H152.853V341.754ZM178.293 228.209V388.411L232 432.736L285.707 388.411V228.209H271.573V337.271C271.573 339.848 269.042 341.937 265.92 341.937H198.08C194.958 341.937 192.427 339.848 192.427 337.271V228.209H178.293ZM203.733 225.476V332.605H260.267V225.476L232 202.147L203.733 225.476ZM279.568 218.878H316.8C319.922 218.878 322.453 220.967 322.453 223.543V282.849L348.136 261.653C350.344 259.831 353.923 259.831 356.131 261.653L383.227 284.015V223.543C383.227 220.967 385.758 218.878 388.88 218.878H424.698L352.133 158.989L279.568 218.878ZM338.485 147.725H265.92C262.798 147.725 260.267 149.814 260.267 152.391V212.279L235.998 192.25C233.79 190.428 230.21 190.428 228.002 192.25L203.733 212.279V152.391C203.733 149.814 201.202 147.725 198.08 147.725H125.515L232 59.8418L338.485 147.725ZM111.867 158.989L39.3018 218.878H79.3601C82.4824 218.878 85.0135 220.967 85.0135 223.543V282.849L107.869 263.986C110.012 262.217 113.464 262.158 115.694 263.851L141.547 283.48V223.543C141.547 220.967 144.078 218.878 147.2 218.878H184.432L111.867 158.989ZM192.427 212.279V157.056H125.515L192.427 212.279ZM141.547 296.16L112.03 273.748L85.0135 296.045V360.017H141.547V296.16ZM338.485 157.056L271.573 212.279V157.056H338.485ZM383.227 297.212L352.133 271.55L322.453 296.045V360.017H383.227V297.212ZM297.013 228.209V352.252L311.147 340.587V228.209H297.013ZM394.533 303.261L407.96 292.18V228.209H394.533V303.261ZM249.667 120.314C249.667 128.044 242.073 134.311 232.707 134.311C223.34 134.311 215.747 128.044 215.747 120.314C215.747 112.583 223.34 106.316 232.707 106.316C242.073 106.316 249.667 112.583 249.667 120.314ZM232.707 394.426C242.073 394.426 249.667 388.16 249.667 380.429C249.667 372.699 242.073 366.432 232.707 366.432C223.34 366.432 215.747 372.699 215.747 380.429C215.747 388.16 223.34 394.426 232.707 394.426Z" fill="#E30000"/>
</g>
<defs>
<filter id="filter0_di_9_120" x="0" y="0" width="464" height="464" filterUnits="userSpaceOnUse" color-interpolation-filters="sRGB">
<feFlood flood-opacity="0" result="BackgroundImageFix"/>
<feColorMatrix in="SourceAlpha" type="matrix" values="0 0 0 0 0 0 0 0 0 0 0 0 0 0 0 0 0 0 127 0" result="hardAlpha"/>
<feOffset/>
<feGaussianBlur stdDeviation="10"/>
<feComposite in2="hardAlpha" operator="out"/>
<feColorMatrix type="matrix" values="0 0 0 0 1 0 0 0 0 0 0 0 0 0 0 0 0 0 1 0"/>
<feBlend mode="normal" in2="BackgroundImageFix" result="effect1_dropShadow_9_120"/>
<feBlend mode="normal" in="SourceGraphic" in2="effect1_dropShadow_9_120" result="shape"/>
<feColorMatrix in="SourceAlpha" type="matrix" values="0 0 0 0 0 0 0 0 0 0 0 0 0 0 0 0 0 0 127 0" result="hardAlpha"/>
<feOffset/>
<feGaussianBlur stdDeviation="3.5"/>
<feComposite in2="hardAlpha" operator="arithmetic" k2="-1" k3="1"/>
<feColorMatrix type="matrix" values="0 0 0 0 1 0 0 0 0 0 0 0 0 0 0 0 0 0 1 0"/>
<feBlend mode="normal" in2="shape" result="effect2_innerShadow_9_120"/>
</filter>
</defs>
</svg>
