<svg width="464" height="464" viewBox="0 0 464 464" fill="none" xmlns="http://www.w3.org/2000/svg">
<g filter="url(#filter0_di_11_179)">
<path fill-rule="evenodd" clip-rule="evenodd" d="M198.817 21.9238C199.722 20.7158 201.175 20 202.722 20C232.798 20 249.62 28.6084 260.489 41.4013C265.777 47.6242 269.475 54.6296 272.649 61.5068C273.847 64.1011 274.946 66.616 276.022 69.0772C277.891 73.3534 279.689 77.4673 281.809 81.5534C285.499 88.6639 289.476 94.3101 293.548 98.9273C302.264 108.808 311.476 114.11 320.238 119.154L320.24 119.154L320.25 119.16L320.253 119.162C321.817 120.062 323.368 120.955 324.898 121.864C326.045 122.545 326.794 122.743 327.182 122.788C327.484 122.822 327.573 122.771 327.604 122.754L327.608 122.751C327.815 122.638 328.746 121.863 329.409 119.065C330.687 113.66 330.029 104.416 326.655 94.011C326.035 92.1001 326.76 90.0221 328.453 88.8589C330.145 87.6956 332.423 87.7101 334.099 88.8947C349.601 99.8476 360.218 116.487 367.842 132.68C403.038 154.448 421.15 188.406 429.557 221.676C437.841 254.459 436.826 286.996 433.219 307.704C443.408 326.819 449.205 352.15 437.56 379.164C427.349 402.851 406.297 413.548 384.948 417.393C364.776 421.025 343.807 418.683 329.783 415.232C301.256 433.413 267.053 444 230.297 444C193.48 444 159.225 433.378 130.669 415.141C117.821 417.531 98.5061 418.644 79.5367 414.657C59.496 410.445 39.2538 400.387 28.0213 379.52C14.4501 354.307 20.1363 327.93 30.0641 307.803C22.489 266.694 22.6572 185.102 93.3074 132.772C100.508 120.017 111.269 105.582 128.291 89.3394C129.746 87.9513 131.954 87.6011 133.795 88.4667C135.635 89.3323 136.705 91.224 136.461 93.1817C135.149 103.722 136.696 111.306 138.447 116.136C138.735 116.932 139.03 117.656 139.321 118.309C139.997 117.674 140.738 116.977 141.536 116.226C145.614 112.392 151.174 107.151 157.106 101.524C162.261 96.633 167.693 91.4535 172.675 86.6534C198.753 61.5284 203.857 42.5812 198.154 26.0978C197.665 24.6849 197.912 23.1318 198.817 21.9238ZM138.224 125.807C134.544 128.796 134.543 128.794 134.541 128.792L134.537 128.787L134.528 128.777L134.509 128.755L134.486 128.728L134.46 128.697C134.423 128.654 134.377 128.599 134.324 128.533C134.218 128.402 134.08 128.226 133.916 128.007C133.588 127.567 133.157 126.95 132.666 126.153C131.683 124.558 130.462 122.243 129.355 119.188C127.985 115.41 126.805 110.54 126.45 104.556C114.618 117.032 106.776 128.168 101.301 138.03C95.1284 149.152 91.8949 158.78 89.3567 167.175C88.9969 168.365 88.6472 169.547 88.3009 170.717L88.2994 170.723L88.2977 170.728L88.2958 170.735L88.2937 170.742L88.2925 170.746C86.2639 177.605 84.3504 184.074 81.2055 189.464C67.3072 213.281 59.3784 240.767 59.3784 270.051C59.3784 273.517 59.4895 276.958 59.7084 280.37C60.442 291.808 62.3868 302.926 65.4198 313.609C72.3165 337.902 84.8447 359.958 101.574 378.394C111.211 389.015 122.241 398.432 134.388 406.381C161.733 424.276 194.741 434.732 230.297 434.732C265.854 434.732 298.861 424.276 326.206 406.381C336.606 399.576 346.187 391.694 354.776 382.902C373.634 363.599 387.706 339.915 395.175 313.609C398.208 302.926 400.152 291.808 400.886 280.37C401.105 276.958 401.216 273.517 401.216 270.051C401.216 240.767 393.287 213.281 379.389 189.464C378.082 187.223 376.84 184.118 375.6 180.676C374.603 177.911 373.532 174.708 372.376 171.25L372.359 171.201C372.057 170.297 371.75 169.377 371.436 168.442C368.366 159.299 364.621 148.506 359.642 137.73C354.306 126.178 347.667 114.906 339.17 105.831C339.9 111.609 339.799 116.891 338.797 121.123C337.918 124.84 336.092 128.768 332.372 130.806C328.279 133.048 323.75 132.072 319.842 129.751C318.458 128.929 317.005 128.096 315.497 127.231L315.495 127.23L315.493 127.228L315.49 127.227C306.957 122.331 296.664 116.426 287.082 105.901C265.069 98.7797 211.341 89.9711 163.189 108.766C157.499 114.161 152.195 119.161 148.266 122.855C146.224 124.776 144.553 126.344 143.392 127.432C142.812 127.976 142.359 128.401 142.051 128.689L141.582 129.128L141.581 129.13L138.224 125.807ZM138.224 125.807L134.544 128.796L137.876 132.596L141.581 129.13C141.58 129.13 141.58 129.13 138.224 125.807ZM178.557 94.0995C216.3 84.4719 254.335 88.3732 277.844 93.773C276.248 91.2716 274.695 88.5859 273.195 85.6946C270.954 81.377 268.92 76.7298 266.955 72.242C265.907 69.8478 264.879 67.4991 263.85 65.2699C260.788 58.638 257.504 52.5281 253.035 47.2682C245.067 37.8899 232.724 30.5047 209 29.4084C212.946 48.904 204.055 69.5329 179.488 93.2032C179.179 93.5006 178.869 93.7994 178.557 94.0995ZM83.9917 152.886C37.8397 196.958 33.3078 256.376 37.7786 294.414C41.8659 288.248 46.1392 282.986 49.9809 278.937C49.827 275.993 49.7492 273.031 49.7492 270.051C49.7492 239.137 58.1236 210.093 72.8097 184.925C75.3531 180.567 76.9115 175.325 78.9734 168.389L78.974 168.387C79.3349 167.173 79.7112 165.907 80.111 164.585C81.2024 160.975 82.4394 157.074 83.9917 152.886ZM51.1821 292.067C47.163 297.195 42.9938 303.462 39.4033 310.501C29.7276 329.471 24.6699 353.146 36.5712 375.256C46.0415 392.85 63.2407 401.746 81.591 405.603C94.9 408.4 108.505 408.465 119.449 407.366C111.005 401.03 103.161 393.987 96.0135 386.329C90.2857 386.804 82.4773 386.349 74.6857 383.733C65.4828 380.642 56.1355 374.46 50.5545 363.159C40.4081 342.612 48.8931 322.905 55.5203 313.843C53.6107 306.749 52.1542 299.48 51.1821 292.067ZM59.3459 326.151C55.5098 334.558 53.1313 346.787 59.2514 359.18C63.5099 367.804 70.5607 372.531 77.8581 374.982C81.3058 376.14 84.7706 376.773 87.9378 377.051C75.6521 361.9 65.9136 344.733 59.3459 326.151ZM340.355 407.955C352.653 410.081 368.254 410.97 383.177 408.283C402.507 404.802 420.1 395.483 428.666 375.612C439.177 351.228 433.705 328.278 423.947 310.637C419.587 302.756 414.418 296.031 409.568 290.846C408.606 298.624 407.111 306.246 405.119 313.677C409.437 318.824 414.356 326.68 417.005 335.813C420.04 346.278 420.165 358.752 412.526 370.568C404.988 382.227 394.033 387.988 383.608 390.434C374.728 392.517 366.104 392.236 359.907 391.151C353.824 397.193 347.289 402.811 340.355 407.955ZM367.894 382.68C371.939 382.835 376.596 382.54 381.328 381.43C389.835 379.434 398.407 374.865 404.35 365.672C410.192 356.636 410.253 347.003 407.73 338.305C406.289 333.335 404.029 328.78 401.644 325.02C394.263 346.385 382.7 365.905 367.894 382.68ZM410.626 278.685C415.202 282.74 420.37 288.274 425.247 294.986C427.22 275.706 426.763 249.836 420.201 223.866C413.23 196.28 399.465 168.909 374.737 149.029C376.986 154.939 378.911 160.567 380.598 165.592C380.928 166.573 381.247 167.528 381.557 168.456L381.563 168.473C382.714 171.914 383.74 174.983 384.697 177.64C385.935 181.075 386.94 183.478 387.785 184.925C402.471 210.093 410.845 239.137 410.845 270.051C410.845 272.945 410.772 275.824 410.626 278.685ZM114.846 274.284C117.317 331.728 165.525 377.836 225.483 380.19V406.853C150.194 404.47 89.639 346.408 87.1426 274.284H114.846ZM114.846 265.016H87.1426C89.639 192.892 150.194 134.831 225.483 132.448V159.111C165.525 161.464 117.317 207.572 114.846 265.016ZM235.112 159.111V132.448C310.401 134.831 370.955 192.892 373.452 265.016H345.748C343.277 207.572 295.069 161.464 235.112 159.111ZM345.748 274.284H373.452C370.955 346.408 310.401 404.47 235.112 406.853V380.19C295.069 377.836 343.277 331.728 345.748 274.284ZM77.4333 269.65C77.4333 188.697 145.891 123.104 230.297 123.104C314.703 123.104 383.161 188.697 383.161 269.65C383.161 350.603 314.703 416.197 230.297 416.197C145.891 416.197 77.4333 350.603 77.4333 269.65ZM124.376 269.65C124.376 213.691 171.774 168.284 230.297 168.284C288.821 168.284 336.219 213.691 336.219 269.65C336.219 325.609 288.821 371.016 230.297 371.016C171.774 371.016 124.376 325.609 124.376 269.65ZM254.371 269.65C254.371 282.766 243.593 293.399 230.298 293.399C217.002 293.399 206.224 282.766 206.224 269.65C206.224 256.534 217.002 245.902 230.298 245.902C243.593 245.902 254.371 256.534 254.371 269.65ZM230.297 347.847C235.615 347.847 239.926 343.957 239.926 339.158C239.926 338.507 239.847 337.871 239.696 337.26L300.291 278.106C301.005 278.258 301.75 278.339 302.516 278.339C307.834 278.339 312.145 274.449 312.145 269.65C312.145 264.852 307.834 260.962 302.516 260.962C301.904 260.962 301.305 261.013 300.724 261.112L239.635 202.994C239.825 202.267 239.926 201.505 239.926 200.721C239.926 195.603 235.615 191.454 230.297 191.454C224.979 191.454 220.668 195.603 220.668 200.721C220.668 201.529 220.775 202.312 220.977 203.058L158.895 260.993C158.625 260.972 158.353 260.962 158.078 260.962C152.76 260.962 148.449 264.852 148.449 269.65C148.449 274.449 152.76 278.339 158.078 278.339C158.517 278.339 158.949 278.312 159.372 278.261L220.915 337.194C220.753 337.825 220.668 338.483 220.668 339.158C220.668 343.957 224.979 347.847 230.297 347.847ZM293.311 267.091L232.924 209.64C232.089 209.867 231.208 209.989 230.297 209.989C229.411 209.989 228.553 209.874 227.737 209.658L166.988 266.349C167.452 267.367 167.707 268.482 167.707 269.65C167.707 270.693 167.504 271.692 167.131 272.618L227.843 330.755C228.626 330.569 229.449 330.47 230.297 330.47C231.171 330.47 232.017 330.575 232.821 330.771L293.193 271.833C292.993 271.136 292.887 270.404 292.887 269.65C292.887 268.76 293.035 267.9 293.311 267.091Z" fill="#E30000"/>
</g>
<defs>
<filter id="filter0_di_11_179" x="0" y="0" width="464" height="464" filterUnits="userSpaceOnUse" color-interpolation-filters="sRGB">
<feFlood flood-opacity="0" result="BackgroundImageFix"/>
<feColorMatrix in="SourceAlpha" type="matrix" values="0 0 0 0 0 0 0 0 0 0 0 0 0 0 0 0 0 0 127 0" result="hardAlpha"/>
<feOffset/>
<feGaussianBlur stdDeviation="10"/>
<feComposite in2="hardAlpha" operator="out"/>
<feColorMatrix type="matrix" values="0 0 0 0 1 0 0 0 0 0 0 0 0 0 0 0 0 0 1 0"/>
<feBlend mode="normal" in2="BackgroundImageFix" result="effect1_dropShadow_11_179"/>
<feBlend mode="normal" in="SourceGraphic" in2="effect1_dropShadow_11_179" result="shape"/>
<feColorMatrix in="SourceAlpha" type="matrix" values="0 0 0 0 0 0 0 0 0 0 0 0 0 0 0 0 0 0 127 0" result="hardAlpha"/>
<feOffset/>
<feGaussianBlur stdDeviation="3.5"/>
<feComposite in2="hardAlpha" operator="arithmetic" k2="-1" k3="1"/>
<feColorMatrix type="matrix" values="0 0 0 0 1 0 0 0 0 0 0 0 0 0 0 0 0 0 1 0"/>
<feBlend mode="normal" in2="shape" result="effect2_innerShadow_11_179"/>
</filter>
</defs>
</svg>
