<svg width="464" height="464" viewBox="0 0 464 464" fill="none" xmlns="http://www.w3.org/2000/svg">
<g filter="url(#filter0_di_11_185)">
<path fill-rule="evenodd" clip-rule="evenodd" d="M222.436 28.4334C225.606 28.2871 228.794 28.2131 232 28.2131C235.206 28.2131 238.394 28.2871 241.564 28.4334C243.829 28.5381 245.751 26.7863 245.855 24.5207C245.96 22.2551 244.208 20.3337 241.942 20.2291C238.647 20.0769 235.332 20 232 20C228.668 20 225.353 20.0769 222.058 20.2291C219.792 20.3337 218.04 22.2552 218.145 24.5207C218.249 26.7863 220.171 28.5381 222.436 28.4334ZM185.704 33.4938C187.913 32.9807 189.288 30.7738 188.775 28.5646C188.262 26.3555 186.055 24.9806 183.846 25.4937C89.9616 47.3012 20 131.475 20 232C20 332.525 89.9616 416.699 183.846 438.506C186.055 439.019 188.262 437.645 188.775 435.435C189.288 433.226 187.913 431.019 185.704 430.506C95.4577 409.544 28.2131 328.62 28.2131 232C28.2131 135.38 95.4577 54.4563 185.704 33.4938ZM280.154 25.4937C277.945 24.9806 275.738 26.3555 275.225 28.5646C274.712 30.7738 276.087 32.9807 278.296 33.4938C368.542 54.4563 435.787 135.38 435.787 232C435.787 328.62 368.542 409.544 278.296 430.506C276.087 431.019 274.712 433.226 275.225 435.435C275.738 437.645 277.945 439.019 280.154 438.506C374.038 416.699 444 332.525 444 232C444 131.475 374.038 47.3012 280.154 25.4937ZM222.436 435.567C220.171 435.462 218.249 437.214 218.145 439.479C218.04 441.745 219.792 443.666 222.057 443.771C225.353 443.923 228.668 444 232 444C235.332 444 238.647 443.923 241.942 443.771C244.208 443.666 245.96 441.745 245.855 439.479C245.751 437.214 243.829 435.462 241.564 435.567C238.394 435.713 235.206 435.787 232 435.787C228.794 435.787 225.606 435.713 222.436 435.567ZM232 63.1186C138.729 63.1186 63.1185 138.729 63.1185 232C63.1185 325.271 138.729 400.881 232 400.881C325.27 400.881 400.881 325.271 400.881 232C400.881 138.729 325.27 63.1186 232 63.1186ZM54.9055 232C54.9055 134.193 134.193 54.9056 232 54.9056C329.806 54.9056 409.094 134.193 409.094 232C409.094 329.807 329.806 409.094 232 409.094C134.193 409.094 54.9055 329.807 54.9055 232ZM146.362 142.686L177.608 173.931C190.9 161.476 208.48 153.528 227.893 152.54V135.496H153.552L146.362 142.686ZM136.523 152.526L140.555 148.494L171.91 179.848C160.619 192.847 153.473 209.553 152.54 227.893H136.523V152.526ZM127.506 151.462L128.31 152.266V227.893H108.846C107.758 223.242 104.864 219.286 100.943 216.806C103.745 192.372 113.223 169.967 127.506 151.462ZM145.61 121.653L132.546 108.59L108.59 132.546L121.653 145.609C106.462 164.986 96.2637 188.465 92.9958 214.108C92.4542 214.059 91.9055 214.034 91.351 214.034C81.4286 214.034 73.3849 222.078 73.3849 232C73.3849 241.922 81.4286 249.966 91.351 249.966C91.9055 249.966 92.4542 249.941 92.9958 249.892C96.2637 275.535 106.462 299.014 121.654 318.391L108.59 331.454L132.547 355.41L145.61 342.347C164.986 357.538 188.465 367.736 214.108 371.004C214.059 371.546 214.034 372.094 214.034 372.649C214.034 382.571 222.078 390.615 232 390.615C241.923 390.615 249.966 382.571 249.966 372.649C249.966 372.094 249.941 371.546 249.892 371.004C275.535 367.736 299.014 357.538 318.391 342.346L331.454 355.41L355.41 331.454L342.347 318.39C357.538 299.014 367.736 275.535 371.004 249.892C371.546 249.941 372.094 249.966 372.649 249.966C382.571 249.966 390.615 241.922 390.615 232C390.615 222.078 382.571 214.034 372.649 214.034C372.094 214.034 371.546 214.059 371.004 214.108C367.736 188.465 357.538 164.986 342.346 145.609L355.41 132.546L331.453 108.59L318.39 121.653C299.014 106.462 275.535 96.2637 249.892 92.9959C249.941 92.4542 249.966 91.9056 249.966 91.3511C249.966 81.4287 241.923 73.385 232 73.385C222.078 73.385 214.034 81.4287 214.034 91.3511C214.034 91.9056 214.059 92.4542 214.108 92.9958C188.465 96.2637 164.986 106.462 145.61 121.653ZM312.538 336.494L311.734 335.69H236.106V355.154C240.758 356.242 244.714 359.136 247.194 363.057C271.628 360.255 294.033 350.777 312.538 336.494ZM311.475 327.477L319.053 319.899L287.836 288.682C274.385 301.932 256.231 310.436 236.106 311.46V327.477H311.475ZM324.86 314.091L327.99 310.961V236.107H311.46C310.563 253.733 303.927 269.851 293.388 282.619L324.86 314.091ZM336.204 312.247L336.494 312.538C350.777 294.033 360.255 271.628 363.057 247.194C359.136 244.714 356.242 240.758 355.154 236.107H336.204V312.247ZM151.752 127.283C170.201 113.124 192.499 103.73 216.806 100.943C219.286 104.864 223.242 107.758 227.893 108.846V127.283H151.752ZM236.106 135.496V152.54C255.519 153.528 273.1 161.476 286.392 173.931L317.637 142.686L310.448 135.496H236.106ZM312.248 127.283H236.106V108.846C240.758 107.758 244.714 104.864 247.194 100.943C271.501 103.73 293.799 113.124 312.248 127.283ZM327.99 153.039L323.445 148.494L292.09 179.848C303.381 192.847 310.527 209.553 311.46 227.893H327.99V153.039ZM336.204 227.893V151.752L336.494 151.462C350.777 169.967 360.255 192.372 363.057 216.806C359.136 219.286 356.242 223.242 355.154 227.893H336.204ZM227.893 335.69V355.154C223.242 356.242 219.286 359.136 216.806 363.057C192.372 360.255 169.968 350.777 151.463 336.494L152.266 335.69H227.893ZM227.893 327.477H152.526L144.947 319.898L176.164 288.682C189.614 301.932 207.769 310.436 227.893 311.46V327.477ZM136.523 311.474L139.14 314.091L170.612 282.619C160.073 269.851 153.437 253.733 152.54 236.107H136.523V311.474ZM128.31 236.107V311.734L127.506 312.538C113.223 294.033 103.745 271.628 100.943 247.194C104.864 244.714 107.758 240.758 108.846 236.107H128.31ZM232 160.649C250.718 160.649 267.748 167.852 280.479 179.647L251.829 206.452C246.354 202.196 239.473 199.661 232 199.661C224.527 199.661 217.647 202.196 212.171 206.452L183.521 179.647C196.252 167.852 213.281 160.649 232 160.649ZM286.175 185.565L257.628 212.274C261.836 217.733 264.339 224.574 264.339 232C264.339 238.701 262.301 244.927 258.81 250.09L287.46 276.895C297.4 264.632 303.351 249.015 303.351 232C303.351 214.265 296.885 198.047 286.175 185.565ZM232 264.339C223.802 264.339 216.316 261.288 210.616 256.26L182.069 282.969C194.942 295.582 212.561 303.351 232 303.351C251.439 303.351 269.058 295.582 281.931 282.969L253.384 256.26C247.684 261.288 240.198 264.339 232 264.339ZM177.825 185.565L206.372 212.274C202.164 217.733 199.661 224.574 199.661 232C199.661 238.701 201.699 244.926 205.19 250.089L176.54 276.895C166.6 264.632 160.649 249.015 160.649 232C160.649 214.265 167.115 198.047 177.825 185.565Z" fill="#E30000"/>
</g>
<defs>
<filter id="filter0_di_11_185" x="0" y="0" width="464" height="464" filterUnits="userSpaceOnUse" color-interpolation-filters="sRGB">
<feFlood flood-opacity="0" result="BackgroundImageFix"/>
<feColorMatrix in="SourceAlpha" type="matrix" values="0 0 0 0 0 0 0 0 0 0 0 0 0 0 0 0 0 0 127 0" result="hardAlpha"/>
<feOffset/>
<feGaussianBlur stdDeviation="10"/>
<feComposite in2="hardAlpha" operator="out"/>
<feColorMatrix type="matrix" values="0 0 0 0 1 0 0 0 0 0 0 0 0 0 0 0 0 0 1 0"/>
<feBlend mode="normal" in2="BackgroundImageFix" result="effect1_dropShadow_11_185"/>
<feBlend mode="normal" in="SourceGraphic" in2="effect1_dropShadow_11_185" result="shape"/>
<feColorMatrix in="SourceAlpha" type="matrix" values="0 0 0 0 0 0 0 0 0 0 0 0 0 0 0 0 0 0 127 0" result="hardAlpha"/>
<feOffset/>
<feGaussianBlur stdDeviation="3.5"/>
<feComposite in2="hardAlpha" operator="arithmetic" k2="-1" k3="1"/>
<feColorMatrix type="matrix" values="0 0 0 0 1 0 0 0 0 0 0 0 0 0 0 0 0 0 1 0"/>
<feBlend mode="normal" in2="shape" result="effect2_innerShadow_11_185"/>
</filter>
</defs>
</svg>
