<svg width="464" height="464" viewBox="0 0 464 464" fill="none" xmlns="http://www.w3.org/2000/svg">
<g filter="url(#filter0_di_11_174)">
<path fill-rule="evenodd" clip-rule="evenodd" d="M173.663 20.0005H113.441C100.123 20.0005 89.3271 33.9758 89.3271 51.2152V412.785C89.3271 430.024 100.123 443.999 113.441 443.999H173.666C173.703 444 173.74 444 173.777 443.999H292.739C292.773 444 292.807 444 292.841 443.999H350.559C363.877 443.999 374.673 430.024 374.673 412.785V51.2152C374.673 33.9758 363.877 20.0005 350.559 20.0005H292.844C292.808 19.9999 292.772 19.9999 292.736 20.0005H173.78C173.741 19.9998 173.702 19.9998 173.663 20.0005ZM291.53 30.4054H249.829L281.367 52.2463C283.324 53.6017 284.062 56.7542 283.015 59.2877C281.968 61.8212 279.532 62.7762 277.575 61.4208L233.797 31.1031L190.018 61.4208C188.061 62.7762 185.626 61.8212 184.579 59.2877C183.532 56.7542 184.269 53.6017 186.227 52.2463L217.765 30.4054H174.942L97.365 97.3415V366.431L174.945 433.595H219.449L186.035 407.299C184.138 405.806 183.535 402.606 184.688 400.151C185.841 397.695 188.314 396.915 190.21 398.408L233.797 432.709L277.383 398.408C279.28 396.915 281.752 397.695 282.905 400.151C284.058 402.606 283.456 405.806 281.559 407.299L248.144 433.595H291.527L366.35 366.244C366.443 366.16 366.539 366.082 366.635 366.009V97.7626C366.54 97.6915 366.447 97.6149 366.355 97.5326L291.53 30.4054ZM366.635 85.1244V51.2152C366.635 39.7223 359.438 30.4054 350.559 30.4054H305.641L366.635 85.1244ZM366.635 378.66L305.606 433.595H350.559C359.438 433.595 366.635 424.278 366.635 412.785V378.66ZM160.486 433.595L97.365 378.948V412.785C97.365 424.278 104.562 433.595 113.441 433.595H160.486ZM97.365 84.8371L160.45 30.4054H113.441C104.562 30.4054 97.365 39.7223 97.365 51.2152V84.8371ZM231.858 52.2763C233.077 51.4077 234.556 51.4167 235.768 52.3L351.526 136.648C352.791 137.57 353.573 139.303 353.573 141.182V309.878C353.573 311.678 352.855 313.35 351.673 314.299L235.916 407.274C234.63 408.306 233.005 408.317 231.712 407.301L113.365 314.326C112.164 313.383 111.431 311.696 111.431 309.878V141.182C111.431 139.285 112.228 137.539 113.512 136.625L231.858 52.2763ZM119.469 144.256V306.95L229.778 393.61V355.114L140.497 290.943C139.221 290.026 138.429 288.285 138.429 286.395V158.914C138.429 157.024 139.221 155.283 140.497 154.366L229.778 90.1947V65.6369L119.469 144.256ZM237.816 65.7321V90.1947L327.096 154.366C328.373 155.283 329.164 157.024 329.164 158.914V286.395C329.164 288.285 328.373 290.026 327.096 290.943L237.816 355.114V393.503L345.536 306.984V144.223L237.816 65.7321ZM233.797 346.102L275.452 316.162V201.666L235.791 231.006C234.555 231.92 233.038 231.92 231.803 231.006L192.141 201.666V316.162L233.797 346.102ZM184.103 310.385V195.72L146.467 167.879V283.333L184.103 310.385ZM150.636 158.979L233.797 220.497L316.957 158.979L233.797 99.2073L150.636 158.979ZM321.127 167.879L283.49 195.72V310.385L321.127 283.333V167.879ZM37.0806 93.2567C37.0806 90.3835 38.8799 88.0543 41.0995 88.0543H70.7393C72.9589 88.0543 74.7583 90.3835 74.7583 93.2567V129.252C74.7583 132.125 72.9589 134.454 70.7393 134.454H41.0995C38.8799 134.454 37.0806 132.125 37.0806 129.252V93.2567ZM45.1185 98.4591V124.049H66.7204V98.4591H45.1185ZM386.227 93.2567C386.227 90.3835 388.027 88.0543 390.246 88.0543H419.886C422.106 88.0543 423.905 90.3835 423.905 93.2567V309.878C423.905 312.752 422.106 315.081 419.886 315.081H390.246C388.027 315.081 386.227 312.752 386.227 309.878V93.2567ZM394.265 98.4591V304.676H415.867V98.4591H394.265ZM37.0806 158.914C37.0806 156.041 38.8799 153.712 41.0995 153.712H70.7393C72.9589 153.712 74.7583 156.041 74.7583 158.914V370.515C74.7583 373.388 72.9589 375.717 70.7393 375.717H41.0995C38.8799 375.717 37.0806 373.388 37.0806 370.515V158.914ZM45.1185 164.117V365.313H66.7204V164.117H45.1185ZM386.227 334.748C386.227 331.875 388.027 329.546 390.246 329.546H419.886C422.106 329.546 423.905 331.875 423.905 334.748V370.515C423.905 373.388 422.106 375.717 419.886 375.717H390.246C388.027 375.717 386.227 373.388 386.227 370.515V334.748ZM394.265 339.951V365.313H415.867V339.951H394.265ZM44.1137 74.6262C35.2353 74.6262 28.0379 83.943 28.0379 95.4359V368.564C28.0379 380.057 35.2353 389.374 44.1137 389.374H70.7393C72.9589 389.374 74.7583 391.703 74.7583 394.576C74.7583 397.449 72.9589 399.779 70.7393 399.779H44.1137C30.7961 399.779 20 385.803 20 368.564V95.4359C20 78.1966 30.7961 64.2213 44.1137 64.2213H70.7393C72.9589 64.2213 74.7583 66.5505 74.7583 69.4237C74.7583 72.297 72.9589 74.6262 70.7393 74.6262H44.1137ZM387.735 69.4237C387.735 66.5505 389.534 64.2213 391.754 64.2213H419.886C433.204 64.2213 444 78.1966 444 95.4359V368.564C444 385.803 433.204 399.779 419.886 399.779H391.754C389.534 399.779 387.735 397.449 387.735 394.576C387.735 391.703 389.534 389.374 391.754 389.374H419.886C428.765 389.374 435.962 380.057 435.962 368.564V95.4359C435.962 83.943 428.765 74.6262 419.886 74.6262H391.754C389.534 74.6262 387.735 72.297 387.735 69.4237Z" fill="#E30000"/>
</g>
<defs>
<filter id="filter0_di_11_174" x="0" y="0" width="464" height="464" filterUnits="userSpaceOnUse" color-interpolation-filters="sRGB">
<feFlood flood-opacity="0" result="BackgroundImageFix"/>
<feColorMatrix in="SourceAlpha" type="matrix" values="0 0 0 0 0 0 0 0 0 0 0 0 0 0 0 0 0 0 127 0" result="hardAlpha"/>
<feOffset/>
<feGaussianBlur stdDeviation="10"/>
<feComposite in2="hardAlpha" operator="out"/>
<feColorMatrix type="matrix" values="0 0 0 0 1 0 0 0 0 0 0 0 0 0 0 0 0 0 1 0"/>
<feBlend mode="normal" in2="BackgroundImageFix" result="effect1_dropShadow_11_174"/>
<feBlend mode="normal" in="SourceGraphic" in2="effect1_dropShadow_11_174" result="shape"/>
<feColorMatrix in="SourceAlpha" type="matrix" values="0 0 0 0 0 0 0 0 0 0 0 0 0 0 0 0 0 0 127 0" result="hardAlpha"/>
<feOffset/>
<feGaussianBlur stdDeviation="3.5"/>
<feComposite in2="hardAlpha" operator="arithmetic" k2="-1" k3="1"/>
<feColorMatrix type="matrix" values="0 0 0 0 1 0 0 0 0 0 0 0 0 0 0 0 0 0 1 0"/>
<feBlend mode="normal" in2="shape" result="effect2_innerShadow_11_174"/>
</filter>
</defs>
</svg>
