<svg width="464" height="464" viewBox="0 0 464 464" fill="none" xmlns="http://www.w3.org/2000/svg">
<g filter="url(#filter0_di_6_88)">
<path fill-rule="evenodd" clip-rule="evenodd" d="M228.042 36.404C229.435 35.5874 231.158 35.5813 232.556 36.388L441.745 157.048C443.136 157.85 443.995 159.335 444 160.944C444.005 162.553 443.154 164.043 441.768 164.854L387.13 196.81L436.71 225.85C438.09 226.659 438.939 228.142 438.939 229.745C438.939 231.348 438.09 232.831 436.709 233.64L389.748 261.139L436.731 289.012C438.099 289.823 438.939 291.299 438.939 292.893C438.939 294.486 438.101 295.962 436.733 296.775L232.606 417.998C231.19 418.838 229.43 418.837 228.016 417.995L24.4508 296.772C23.0856 295.959 22.249 294.485 22.2493 292.893C22.2497 291.301 23.087 289.827 24.4525 289.014L71.3108 261.139L24.4746 233.637C23.0993 232.829 22.2528 231.353 22.2493 229.755C22.2459 228.157 23.0859 226.676 24.4576 225.862L74.7153 196.054L22.2044 164.837C20.8337 164.023 19.9952 162.541 20 160.944C20.0049 159.346 20.8523 157.87 22.228 157.064L228.042 36.404ZM83.5412 201.3L35.6168 229.725L82.4432 257.221L82.4784 257.242L99.8709 267.669L99.9108 267.693L230.313 344.053L425.521 229.744L378.205 202.031L371.851 205.747L391.21 217.422C392.569 218.241 393.397 219.718 393.39 221.309C393.382 222.899 392.54 224.368 391.173 225.174L232.595 318.77C231.185 319.603 229.434 319.601 228.025 318.767L70.0089 225.171C68.6757 224.381 67.8412 222.959 67.8 221.407C67.7588 219.855 68.5166 218.391 69.8061 217.531L89.1494 204.634L83.5412 201.3ZM97.7393 209.741L80.7604 221.061L230.317 309.646L380.094 221.246L362.989 210.93L232.58 287.205C231.169 288.03 229.423 288.023 228.019 287.188L97.7393 209.741ZM89.1639 271.761L80.1609 266.364L35.5611 292.896L230.316 408.873L425.609 292.896L380.856 266.346L371.601 271.765L391.339 284.598C392.652 285.452 393.429 286.929 393.388 288.498C393.348 290.067 392.498 291.503 391.143 292.288L232.564 384.192C231.169 385.001 229.45 385 228.056 384.189L70.0398 292.285C68.6938 291.502 67.8469 290.077 67.8004 288.518C67.754 286.958 68.5146 285.485 69.8115 284.623L89.1639 271.761ZM362.901 276.86L232.582 353.172C231.18 353.992 229.446 353.992 228.044 353.172L97.7526 276.876L80.8237 288.128L230.317 375.075L380.283 288.162L362.901 276.86ZM230.331 45.5122L33.3652 160.984L230.332 278.076L430.527 160.985L230.331 45.5122ZM227.933 73.6831C229.376 72.7806 231.204 72.7718 232.656 73.6603L375.478 161.047L375.489 161.054L394.035 172.323C396.159 173.615 396.838 176.388 395.55 178.519C394.262 180.649 391.496 181.329 389.371 180.038L373.116 170.16L232.601 253.363C231.193 254.196 229.446 254.198 228.036 253.369L66.0839 158.082C63.9411 156.821 63.2233 154.057 64.4808 151.909C65.7382 149.76 68.4947 149.04 70.6375 150.301L88.5341 160.831L227.933 73.6831ZM97.2947 165.985L230.306 244.245L364.406 164.841L230.338 82.8103L97.2947 165.985Z" fill="#E30000"/>
</g>
<g filter="url(#filter1_di_6_88)">
<ellipse cx="230.875" cy="160.394" rx="24.1804" ry="18.6064" fill="#E30000"/>
</g>
<g filter="url(#filter2_di_6_88)">
<path fill-rule="evenodd" clip-rule="evenodd" d="M135.841 31.2766C135.841 37.5045 130.806 42.5532 124.594 42.5532C122.147 42.5532 119.883 41.7697 118.037 40.4393L64.9531 72.1209C64.9754 72.411 64.9867 72.7042 64.9867 73C64.9867 79.2279 59.9514 84.2766 53.7401 84.2766C47.5287 84.2766 42.4934 79.2279 42.4934 73C42.4934 66.7721 47.5287 61.7234 53.7401 61.7234C56.3743 61.7234 58.7971 62.6315 60.7139 64.1525L113.435 32.6876C113.377 32.2254 113.347 31.7545 113.347 31.2766C113.347 25.0487 118.383 20 124.594 20C130.806 20 135.841 25.0487 135.841 31.2766Z" fill="#E30000"/>
</g>
<g filter="url(#filter3_di_6_88)">
<path fill-rule="evenodd" clip-rule="evenodd" d="M324.785 31.2766C324.785 37.5045 329.82 42.5532 336.032 42.5532C338.479 42.5532 340.743 41.7697 342.589 40.4393L395.673 72.1209C395.651 72.411 395.639 72.7042 395.639 73C395.639 79.2279 400.675 84.2766 406.886 84.2766C413.097 84.2766 418.133 79.2279 418.133 73C418.133 66.7721 413.097 61.7234 406.886 61.7234C404.252 61.7234 401.829 62.6315 399.912 64.1525L347.191 32.6876C347.249 32.2254 347.279 31.7545 347.279 31.2766C347.279 25.0487 342.243 20 336.032 20C329.82 20 324.785 25.0487 324.785 31.2766Z" fill="#E30000"/>
</g>
<g filter="url(#filter4_di_6_88)">
<path fill-rule="evenodd" clip-rule="evenodd" d="M324.785 432.723C324.785 426.496 329.82 421.447 336.032 421.447C338.479 421.447 340.743 422.23 342.589 423.561L395.673 391.879C395.651 391.589 395.639 391.296 395.639 391C395.639 384.772 400.675 379.723 406.886 379.723C413.097 379.723 418.133 384.772 418.133 391C418.133 397.228 413.097 402.277 406.886 402.277C404.252 402.277 401.829 401.369 399.912 399.848L347.191 431.312C347.249 431.775 347.279 432.246 347.279 432.723C347.279 438.951 342.243 444 336.032 444C329.82 444 324.785 438.951 324.785 432.723Z" fill="#E30000"/>
</g>
<g filter="url(#filter5_di_6_88)">
<path fill-rule="evenodd" clip-rule="evenodd" d="M135.841 432.723C135.841 426.495 130.806 421.447 124.594 421.447C122.147 421.447 119.883 422.23 118.037 423.561L64.9531 391.879C64.9754 391.589 64.9867 391.296 64.9867 391C64.9867 384.772 59.9514 379.723 53.7401 379.723C47.5287 379.723 42.4934 384.772 42.4934 391C42.4934 397.228 47.5287 402.277 53.7401 402.277C56.3743 402.277 58.7971 401.368 60.7139 399.847L113.435 431.312C113.377 431.775 113.347 432.246 113.347 432.723C113.347 438.951 118.383 444 124.594 444C130.806 444 135.841 438.951 135.841 432.723Z" fill="#E30000"/>
</g>
<defs>
<filter id="filter0_di_6_88" x="0" y="15.7872" width="464" height="422.84" filterUnits="userSpaceOnUse" color-interpolation-filters="sRGB">
<feFlood flood-opacity="0" result="BackgroundImageFix"/>
<feColorMatrix in="SourceAlpha" type="matrix" values="0 0 0 0 0 0 0 0 0 0 0 0 0 0 0 0 0 0 127 0" result="hardAlpha"/>
<feOffset/>
<feGaussianBlur stdDeviation="10"/>
<feComposite in2="hardAlpha" operator="out"/>
<feColorMatrix type="matrix" values="0 0 0 0 1 0 0 0 0 0 0 0 0 0 0 0 0 0 1 0"/>
<feBlend mode="normal" in2="BackgroundImageFix" result="effect1_dropShadow_6_88"/>
<feBlend mode="normal" in="SourceGraphic" in2="effect1_dropShadow_6_88" result="shape"/>
<feColorMatrix in="SourceAlpha" type="matrix" values="0 0 0 0 0 0 0 0 0 0 0 0 0 0 0 0 0 0 127 0" result="hardAlpha"/>
<feOffset/>
<feGaussianBlur stdDeviation="3.65"/>
<feComposite in2="hardAlpha" operator="arithmetic" k2="-1" k3="1"/>
<feColorMatrix type="matrix" values="0 0 0 0 1 0 0 0 0 0 0 0 0 0 0 0 0 0 1 0"/>
<feBlend mode="normal" in2="shape" result="effect2_innerShadow_6_88"/>
</filter>
<filter id="filter1_di_6_88" x="186.695" y="121.787" width="88.3607" height="77.2128" filterUnits="userSpaceOnUse" color-interpolation-filters="sRGB">
<feFlood flood-opacity="0" result="BackgroundImageFix"/>
<feColorMatrix in="SourceAlpha" type="matrix" values="0 0 0 0 0 0 0 0 0 0 0 0 0 0 0 0 0 0 127 0" result="hardAlpha"/>
<feOffset/>
<feGaussianBlur stdDeviation="10"/>
<feComposite in2="hardAlpha" operator="out"/>
<feColorMatrix type="matrix" values="0 0 0 0 1 0 0 0 0 0 0 0 0 0 0 0 0 0 1 0"/>
<feBlend mode="normal" in2="BackgroundImageFix" result="effect1_dropShadow_6_88"/>
<feBlend mode="normal" in="SourceGraphic" in2="effect1_dropShadow_6_88" result="shape"/>
<feColorMatrix in="SourceAlpha" type="matrix" values="0 0 0 0 0 0 0 0 0 0 0 0 0 0 0 0 0 0 127 0" result="hardAlpha"/>
<feOffset/>
<feGaussianBlur stdDeviation="3.65"/>
<feComposite in2="hardAlpha" operator="arithmetic" k2="-1" k3="1"/>
<feColorMatrix type="matrix" values="0 0 0 0 1 0 0 0 0 0 0 0 0 0 0 0 0 0 1 0"/>
<feBlend mode="normal" in2="shape" result="effect2_innerShadow_6_88"/>
</filter>
<filter id="filter2_di_6_88" x="22.4934" y="0" width="133.348" height="104.277" filterUnits="userSpaceOnUse" color-interpolation-filters="sRGB">
<feFlood flood-opacity="0" result="BackgroundImageFix"/>
<feColorMatrix in="SourceAlpha" type="matrix" values="0 0 0 0 0 0 0 0 0 0 0 0 0 0 0 0 0 0 127 0" result="hardAlpha"/>
<feOffset/>
<feGaussianBlur stdDeviation="10"/>
<feComposite in2="hardAlpha" operator="out"/>
<feColorMatrix type="matrix" values="0 0 0 0 1 0 0 0 0 0 0 0 0 0 0 0 0 0 1 0"/>
<feBlend mode="normal" in2="BackgroundImageFix" result="effect1_dropShadow_6_88"/>
<feBlend mode="normal" in="SourceGraphic" in2="effect1_dropShadow_6_88" result="shape"/>
<feColorMatrix in="SourceAlpha" type="matrix" values="0 0 0 0 0 0 0 0 0 0 0 0 0 0 0 0 0 0 127 0" result="hardAlpha"/>
<feOffset/>
<feGaussianBlur stdDeviation="3.65"/>
<feComposite in2="hardAlpha" operator="arithmetic" k2="-1" k3="1"/>
<feColorMatrix type="matrix" values="0 0 0 0 1 0 0 0 0 0 0 0 0 0 0 0 0 0 1 0"/>
<feBlend mode="normal" in2="shape" result="effect2_innerShadow_6_88"/>
</filter>
<filter id="filter3_di_6_88" x="304.785" y="0" width="133.347" height="104.277" filterUnits="userSpaceOnUse" color-interpolation-filters="sRGB">
<feFlood flood-opacity="0" result="BackgroundImageFix"/>
<feColorMatrix in="SourceAlpha" type="matrix" values="0 0 0 0 0 0 0 0 0 0 0 0 0 0 0 0 0 0 127 0" result="hardAlpha"/>
<feOffset/>
<feGaussianBlur stdDeviation="10"/>
<feComposite in2="hardAlpha" operator="out"/>
<feColorMatrix type="matrix" values="0 0 0 0 1 0 0 0 0 0 0 0 0 0 0 0 0 0 1 0"/>
<feBlend mode="normal" in2="BackgroundImageFix" result="effect1_dropShadow_6_88"/>
<feBlend mode="normal" in="SourceGraphic" in2="effect1_dropShadow_6_88" result="shape"/>
<feColorMatrix in="SourceAlpha" type="matrix" values="0 0 0 0 0 0 0 0 0 0 0 0 0 0 0 0 0 0 127 0" result="hardAlpha"/>
<feOffset/>
<feGaussianBlur stdDeviation="3.65"/>
<feComposite in2="hardAlpha" operator="arithmetic" k2="-1" k3="1"/>
<feColorMatrix type="matrix" values="0 0 0 0 1 0 0 0 0 0 0 0 0 0 0 0 0 0 1 0"/>
<feBlend mode="normal" in2="shape" result="effect2_innerShadow_6_88"/>
</filter>
<filter id="filter4_di_6_88" x="304.785" y="359.723" width="133.347" height="104.277" filterUnits="userSpaceOnUse" color-interpolation-filters="sRGB">
<feFlood flood-opacity="0" result="BackgroundImageFix"/>
<feColorMatrix in="SourceAlpha" type="matrix" values="0 0 0 0 0 0 0 0 0 0 0 0 0 0 0 0 0 0 127 0" result="hardAlpha"/>
<feOffset/>
<feGaussianBlur stdDeviation="10"/>
<feComposite in2="hardAlpha" operator="out"/>
<feColorMatrix type="matrix" values="0 0 0 0 1 0 0 0 0 0 0 0 0 0 0 0 0 0 1 0"/>
<feBlend mode="normal" in2="BackgroundImageFix" result="effect1_dropShadow_6_88"/>
<feBlend mode="normal" in="SourceGraphic" in2="effect1_dropShadow_6_88" result="shape"/>
<feColorMatrix in="SourceAlpha" type="matrix" values="0 0 0 0 0 0 0 0 0 0 0 0 0 0 0 0 0 0 127 0" result="hardAlpha"/>
<feOffset/>
<feGaussianBlur stdDeviation="3.65"/>
<feComposite in2="hardAlpha" operator="arithmetic" k2="-1" k3="1"/>
<feColorMatrix type="matrix" values="0 0 0 0 1 0 0 0 0 0 0 0 0 0 0 0 0 0 1 0"/>
<feBlend mode="normal" in2="shape" result="effect2_innerShadow_6_88"/>
</filter>
<filter id="filter5_di_6_88" x="22.4934" y="359.723" width="133.348" height="104.277" filterUnits="userSpaceOnUse" color-interpolation-filters="sRGB">
<feFlood flood-opacity="0" result="BackgroundImageFix"/>
<feColorMatrix in="SourceAlpha" type="matrix" values="0 0 0 0 0 0 0 0 0 0 0 0 0 0 0 0 0 0 127 0" result="hardAlpha"/>
<feOffset/>
<feGaussianBlur stdDeviation="10"/>
<feComposite in2="hardAlpha" operator="out"/>
<feColorMatrix type="matrix" values="0 0 0 0 1 0 0 0 0 0 0 0 0 0 0 0 0 0 1 0"/>
<feBlend mode="normal" in2="BackgroundImageFix" result="effect1_dropShadow_6_88"/>
<feBlend mode="normal" in="SourceGraphic" in2="effect1_dropShadow_6_88" result="shape"/>
<feColorMatrix in="SourceAlpha" type="matrix" values="0 0 0 0 0 0 0 0 0 0 0 0 0 0 0 0 0 0 127 0" result="hardAlpha"/>
<feOffset/>
<feGaussianBlur stdDeviation="3.65"/>
<feComposite in2="hardAlpha" operator="arithmetic" k2="-1" k3="1"/>
<feColorMatrix type="matrix" values="0 0 0 0 1 0 0 0 0 0 0 0 0 0 0 0 0 0 1 0"/>
<feBlend mode="normal" in2="shape" result="effect2_innerShadow_6_88"/>
</filter>
</defs>
</svg>
